<svg width="351" height="210" viewBox="0 0 351 210" fill="none" xmlns="http://www.w3.org/2000/svg">
<g clip-path="url(#clip0_6881_7705)">
<rect x="70" y="19.5" width="172" height="127" rx="4.5" stroke="#0A0C0F" stroke-linejoin="round" stroke-dasharray="8 12"/>
<path d="M122.601 209.607C122.601 209.607 123.059 206.687 120.26 205.859C117.543 205.054 114.211 204.876 111.712 204.545C109.99 204.316 108.079 204.217 106.338 202.178H98.4736L101.608 209.607H122.601Z" fill="#0D9AFF"/>
<path d="M46.8515 209.674C46.8515 209.674 47.2305 206.754 44.7748 205.926C42.3901 205.121 39.1289 204.943 36.7679 204.612C35.1413 204.383 33.9371 204.261 34.7267 202.245H27.8846L25.188 209.674H46.8555H46.8515Z" fill="#0D9AFF"/>
<path d="M9.80588 90.1763C9.80588 90.1763 2.43467 104.576 9.80588 113.694C17.1771 122.811 49.0229 150.692 49.0229 150.692L19.2814 203.164H49.0268L67.2713 170.067L89.2151 202.178H119.039L43.6297 100.193L9.80588 90.1763Z" fill="#C2C9D6"/>
<path d="M23.0916 99.8067C32.7882 111.165 42.477 122.535 52.4066 133.692C54.9571 136.557 57.5234 139.409 60.1292 142.222C60.3029 142.407 60.5793 142.131 60.4095 141.942C50.3181 131.037 40.653 119.73 30.9918 108.443C28.4492 105.472 25.9106 102.501 23.3719 99.5266C23.2061 99.3332 22.9297 99.6133 23.0916 99.8067Z" fill="#333B4C"/>
<path d="M67.6541 170.091C70.2086 165.57 72.9407 161.108 75.128 156.393C76.0795 154.338 76.6046 152.389 76.5454 150.1C76.4743 147.28 75.7636 144.486 74.5476 141.946C74.4371 141.717 74.0975 141.918 74.2081 142.143C75.4517 144.747 76.1624 147.643 76.1585 150.534C76.1585 152.906 75.4359 154.862 74.4213 156.965C72.2893 161.392 69.7269 165.613 67.3146 169.886C67.1882 170.107 67.5317 170.308 67.6541 170.083V170.091Z" fill="#333B4C"/>
<path d="M38.5562 197.783C44.2889 186.689 50.4164 175.796 56.7966 165.061C58.5022 162.193 60.2315 159.336 61.9924 156.5C62.1266 156.283 61.7871 156.085 61.6529 156.302C55.0673 166.911 48.8529 177.757 42.907 188.736C41.3159 191.671 39.7524 194.619 38.2166 197.585C38.1021 197.81 38.4417 198.011 38.5562 197.783Z" fill="#333B4C"/>
<path d="M60.1289 142.222C61.8069 143.958 63.1532 146.037 63.552 148.451C64.01 151.241 63.0861 153.935 61.649 156.302C61.5187 156.519 61.8582 156.717 61.9885 156.5C63.4296 154.124 64.3613 151.43 63.9705 148.625C63.6112 146.033 62.1978 143.796 60.4053 141.942C60.2276 141.76 59.9513 142.036 60.125 142.222H60.1289Z" fill="#333B4C"/>
<path d="M22.8345 197.881H51.6126C51.8653 197.881 51.8653 197.487 51.6126 197.487H22.8345C22.5818 197.487 22.5818 197.881 22.8345 197.881Z" fill="#333B4C"/>
<path d="M86.2696 197.881H115.048C115.3 197.881 115.3 197.487 115.048 197.487H86.2696C86.0169 197.487 86.0169 197.881 86.2696 197.881Z" fill="#333B4C"/>
<path d="M7.43296 75.1647H2.43854C2.43854 75.1647 5.00484 60.6778 8.75559 53.1818C12.5063 45.6859 16.0597 43.8434 20.5329 43.1215C25.0062 42.3995 31.3232 42.8571 38.3668 44.4352C45.4063 46.0133 52.6472 49.9586 54.4871 53.3791C56.3309 56.7996 48.5648 98.5126 48.5648 98.5126L23.7586 94.3109L20.5487 106.178L0.5 107.819L7.43296 75.1607V75.1647Z" fill="#0D9AFF"/>
<path d="M38.943 44.5692L38.7022 48.3763L33.9328 91.9515L24.8955 87.304L30.6006 49.9544L30.0794 43.0542C32.6615 43.3185 35.4529 43.7762 38.3627 44.4311C38.5561 44.4745 38.7496 44.5179 38.9391 44.5652H38.943V44.5692Z" fill="white"/>
<path d="M30.0796 43.0543C30.0796 43.0543 31.3548 45.3859 34.6792 45.7804C38.0035 46.175 38.9432 44.5693 38.9432 44.5693L39.5473 43.0543L31.9194 37.957L30.0796 43.0543Z" fill="#B6D2FF"/>
<path d="M73.1107 92.8274C73.1107 92.8274 73.7029 93.9794 72.2382 94.8829C70.7734 95.7864 59.6199 101.507 46.8752 103.223C34.4899 104.892 18.0971 100.718 12.3091 95.5457C6.51718 90.3735 3.75347 83.3155 4.2391 75.1606H20.9043C20.9043 75.1606 20.0712 81.5638 25.9263 86.0771C32.6382 91.2493 73.1068 92.8274 73.1068 92.8274H73.1107Z" fill="#B6D2FF"/>
<path d="M21.0421 75.6736H22.8029C23.0556 75.6736 23.0556 75.2791 22.8029 75.2791H21.0421C20.7894 75.2791 20.7894 75.6736 21.0421 75.6736Z" fill="#3448C5"/>
<path d="M108.991 89.9357C108.991 89.9357 111.826 87.9867 111.317 87.0872C110.697 85.9904 109.473 86.5191 108.289 87.3949C107.104 88.2708 108.991 89.9357 108.991 89.9357Z" fill="#B6D2FF"/>
<path d="M106.724 51H48.2755C46.7427 51 45.5 51.6958 45.5 52.5542V91.4458C45.5 92.3042 46.7427 93 48.2755 93H106.724C108.257 93 109.5 92.3042 109.5 91.4458V52.5542C109.5 51.6958 108.257 51 106.724 51Z" fill="white"/>
<path d="M98.683 57.9998H55.2967C53.5523 57.9998 52.1382 59.4128 52.1382 61.1559V82.6338C52.1382 84.3769 53.5523 85.79 55.2967 85.79H98.683C100.427 85.79 101.842 84.3769 101.842 82.6338V61.1559C101.842 59.4128 100.427 57.9998 98.683 57.9998Z" fill="#B6D2FF"/>
<path d="M95.7614 70.2418C93.3411 71.2044 89.9655 72.2657 87.3083 70.9519C85.8436 70.2299 84.8763 69.287 82.7798 69.1253C80.557 68.9556 78.35 69.65 76.5733 70.3088C71.9935 71.9974 67.6347 73.9148 63.4852 75.9269C59.4897 77.8679 55.7073 79.9431 52.1382 82.1327V82.6338C52.1382 84.3776 53.5516 85.79 55.2967 85.79H98.683C100.428 85.79 101.842 84.3776 101.842 82.6338V67.5906C99.8793 68.5217 97.8539 69.4093 95.7614 70.2418Z" fill="#F5B361"/>
<path d="M59.7146 68.2612C61.2017 68.2612 62.4073 67.0565 62.4073 65.5705C62.4073 64.0845 61.2017 62.8799 59.7146 62.8799C58.2275 62.8799 57.022 64.0845 57.022 65.5705C57.022 67.0565 58.2275 68.2612 59.7146 68.2612Z" fill="white"/>
<path d="M61.2661 94.2319C61.2661 94.2319 64.7326 91.5137 64.5983 90.1131C64.468 88.7086 62.9756 88.3141 60.7291 89.1939C58.9051 89.904 53.5869 93.0957 53.5869 93.0957L61.2621 94.2359L61.2661 94.2319Z" fill="#B6D2FF"/>
<path d="M90.1743 92.8276C90.1743 92.8276 91.6865 96.2678 98.2246 97.0805C105.493 97.984 108.107 93.0643 108.533 92.3699C108.96 91.6755 108.798 90.9023 107.657 90.8352C106.516 90.7681 105.77 91.5375 105.77 91.5375C105.77 91.5375 106.318 90.133 105.201 89.916C104.084 89.695 102.504 90.5314 101.032 91.9123C101.032 91.9123 102.129 90.2908 100.878 89.7858C99.6262 89.2808 97.4981 90.8194 96.744 91.3875C96.0334 91.9202 94.8252 92.8354 94.8252 92.8354H90.1743V92.8276Z" fill="#B6D2FF"/>
<path d="M97.3955 95.3248C98.8958 94.5121 100.183 93.4272 101.19 92.0464C101.34 91.8412 100.996 91.6439 100.85 91.8491C99.8868 93.1707 98.6352 94.2083 97.1981 94.9856C96.973 95.1079 97.1744 95.4471 97.3955 95.3248Z" fill="#0D9AFF"/>
<path d="M101.841 95.9719C103.637 94.954 104.897 93.443 105.991 91.7189C106.129 91.5019 105.785 91.3046 105.651 91.5216C104.593 93.1905 103.385 94.6423 101.644 95.6326C101.423 95.7588 101.62 96.0981 101.841 95.9719Z" fill="#0D9AFF"/>
<path d="M25.693 62.7489C24.7257 66.99 23.5925 71.1877 22.6134 75.4249C22.5581 75.6735 22.9371 75.7761 22.9924 75.5315C23.9716 71.2943 25.1047 67.0965 26.072 62.8554C26.1273 62.6069 25.7482 62.5043 25.693 62.7489Z" fill="#3448C5"/>
<path d="M3.75348 70.9314H23.7588C24.0115 70.9314 24.0115 70.5369 23.7588 70.5369H3.75348C3.50079 70.5369 3.50079 70.9314 3.75348 70.9314Z" fill="#3448C5"/>
<path d="M27.0235 42.9242C26.4866 45.8515 26.0089 48.7868 25.4996 51.7181C25.4561 51.9667 25.8351 52.0732 25.8786 51.8246C26.3918 48.8933 26.8696 45.9581 27.4026 43.0307C27.4499 42.7822 27.067 42.6756 27.0235 42.9242Z" fill="#3448C5"/>
<path d="M25.7404 51.9626C27.3315 51.3353 28.9266 50.7041 30.5177 50.0768C30.7506 49.9861 30.648 49.6034 30.4111 49.698C28.82 50.3253 27.2249 50.9566 25.6338 51.5839C25.4009 51.6746 25.5035 52.0573 25.7404 51.9626Z" fill="#3448C5"/>
<path d="M38.7222 48.771C39.7526 49.2247 40.8028 49.6271 41.861 50.0177C42.0978 50.1045 42.2044 49.7257 41.9676 49.6389C40.945 49.2602 39.9264 48.8696 38.9235 48.4317C38.6945 48.3291 38.4932 48.6684 38.7261 48.771H38.7222Z" fill="#3448C5"/>
<path d="M40.266 45.1612C40.7517 46.7314 41.2333 48.3055 41.7229 49.8757C41.7979 50.1164 42.1809 50.0138 42.1019 49.7692C41.6163 48.199 41.1346 46.6249 40.6451 45.0546C40.57 44.814 40.1871 44.9166 40.266 45.1612Z" fill="#3448C5"/>
<path d="M33.6688 39.8073C34.4427 40.8962 36.3299 42.8254 38.5961 44.009C40.5663 45.0387 42.6588 44.364 43.6537 42.6597C44.85 40.616 44.7355 37.2665 44.4868 33.8736C44.238 30.4807 41.9718 26.8432 37.6486 26.6972C33.3214 26.5513 31.5092 30.3071 31.1894 32.6467C30.8696 34.9862 31.5802 36.8602 33.6728 39.8073H33.6688Z" fill="#B6D2FF"/>
<path d="M31.6077 38.825L31.7617 37.3219C31.7617 37.3219 30.0798 34.6036 29.6771 33.0729C29.3257 31.7433 30.0719 29.7194 31.4774 30.0547C31.4774 30.0547 31.7538 26.8078 33.7832 25.3086C35.8086 23.8094 37.9801 24.7287 37.9682 25.9201C37.9682 25.9201 40.6214 24.4328 41.865 26.7802C41.865 26.7802 45.6039 27.7389 45.1775 30.4769C44.7511 33.2149 40.9293 32.6902 40.9293 32.6902C40.9293 32.6902 40.3332 34.2761 38.4262 33.566C36.5153 32.8559 35.5677 32.6862 35.0505 33.6055C34.5373 34.5168 35.5203 35.5386 35.5203 35.5386C35.5203 35.5386 34.7228 39.9415 31.6077 38.825Z" fill="#0A0C0F"/>
<path d="M36.1757 37.5309C35.919 38.6079 34.8372 39.2707 33.7594 39.0143C32.6815 38.7578 32.0182 37.6768 32.2749 36.5998C32.5315 35.5227 33.6133 34.8599 34.6911 35.1164C35.769 35.3728 36.4323 36.4538 36.1757 37.5309Z" fill="#B6D2FF"/>
<path d="M34.0794 36.0317C33.2898 36.2486 32.9384 37.0693 33.27 37.8031C33.3766 38.0358 33.7162 37.8346 33.6096 37.6058C33.3806 37.1008 33.657 36.5603 34.1821 36.4143C34.4268 36.3473 34.3242 35.9646 34.0755 36.0356L34.0794 36.0317Z" fill="#0A0C0F"/>
<path d="M40.511 34.4774C40.7795 35.1718 40.0056 35.1441 39.5516 35.8188C39.1331 36.4382 38.7185 36.6946 38.4619 36.379C38.154 35.9963 38.3158 35.1007 39.0976 34.4419C39.8319 33.8225 40.3175 33.9724 40.511 34.4774Z" fill="#0A0C0F"/>
<path d="M42.0862 34.2683C42.2599 34.9587 42.8324 34.5168 43.547 34.7969C44.2024 35.0534 44.5616 34.9745 44.5814 34.5878C44.609 34.1184 44.0958 33.5581 43.1403 33.4674C42.248 33.3806 41.9559 33.7633 42.0862 34.2683Z" fill="#0A0C0F"/>
<path d="M40.2228 36.0239C39.6346 36.0831 39.7925 36.9195 39.9267 37.2509C40.0175 37.4639 40.1834 37.7125 40.4479 37.6809C40.8348 37.6375 40.8111 37.1089 40.7677 36.8288C40.7203 36.5171 40.6019 35.9884 40.2189 36.0279L40.2228 36.0239Z" fill="#0A0C0F"/>
<path d="M43.2863 35.2546C42.698 35.3138 42.856 36.1502 42.9902 36.4816C43.081 36.6947 43.2468 36.9432 43.5114 36.9116C43.8983 36.8682 43.8746 36.3396 43.8312 36.0595C43.7838 35.7478 43.6653 35.2191 43.2824 35.2586L43.2863 35.2546Z" fill="#0A0C0F"/>
<path d="M41.6991 36.0161C41.9715 36.9354 42.2953 37.6613 42.9625 38.3675C43.1362 38.5529 43.4165 38.2728 43.2428 38.0874C42.6269 37.4325 42.3348 36.7657 42.0821 35.9135C42.011 35.6689 41.628 35.7755 41.703 36.0201L41.6991 36.0161Z" fill="#0A0C0F"/>
<path d="M42.0547 38.9947C42.5364 38.9355 43.0062 38.7303 43.2747 38.3082C43.4129 38.0952 43.0694 37.894 42.9352 38.1109C42.7496 38.4029 42.3943 38.5607 42.0547 38.6002C41.806 38.6317 41.8021 39.0262 42.0547 38.9947Z" fill="#0A0C0F"/>
<path d="M36.9457 43.0976C37.4985 43.6026 38.1144 44.0129 38.7935 44.3206C39.0225 44.4232 39.2238 44.0839 38.9909 43.9813C38.3394 43.6854 37.7472 43.2988 37.2221 42.8175C37.0365 42.6478 36.7562 42.924 36.9418 43.0976H36.9457Z" fill="#0A0C0F"/>
<path d="M43.4364 39.6812L40.9136 40.0244C40.9136 40.0244 41.5611 40.8134 42.3823 40.7621C43.2746 40.703 43.4325 39.6851 43.4325 39.6851L43.4364 39.6812Z" fill="white"/>
<path d="M350.5 205.18C350.5 205.18 347.61 206.372 346.043 204.064C344.519 201.819 343.492 198.852 342.509 196.682C341.834 195.187 341.581 194.686 339.039 193.656L337.293 187.466L345.146 186.192L350.496 205.18H350.5Z" fill="#0A0C0F"/>
<path d="M280.578 78.5378L271.715 79.5991L229.166 69.5979V80.905L261.714 98.5086L263.175 117.639H287.507L294.002 91.6005L280.578 78.5378Z" fill="#ADB2BA"/>
<path d="M256.1 39.1289C256.1 39.1289 252.831 34.4065 251.252 33.4833C249.672 32.5601 248.753 34.0238 249.246 34.8957C249.246 34.8957 248.129 34.1224 247.351 35.0732C246.581 36.0122 247.734 37.4601 247.734 37.4601L252.669 44.8574L256.1 39.125V39.1289Z" fill="#B6D2FF"/>
<path d="M253.332 36.7185H191.567C190.041 36.7185 188.804 37.9549 188.804 39.4802V85.9906C188.804 87.5158 190.041 88.7523 191.567 88.7523H253.332C254.859 88.7523 256.096 87.5158 256.096 85.9906V39.4802C256.096 37.9549 254.859 36.7185 253.332 36.7185Z" fill="white"/>
<path d="M189.269 206.45C189.269 206.45 188.432 203.531 191.121 202.702C193.735 201.898 197.043 201.72 199.499 201.389C201.189 201.16 203.092 201.061 204.56 199.021H211.403L210.258 206.45H189.265H189.269Z" fill="#0A0C0F"/>
<path d="M211.407 199.022L213.021 191.691H206.242L204.561 199.022H211.407Z" fill="#B6D2FF"/>
<path d="M337.298 187.462L329.623 188.744L331.316 194.753L339.043 193.656L337.298 187.462Z" fill="#B6D2FF"/>
<path d="M288.123 148.325V171.121C288.123 175.504 290.757 177.082 295.23 177.082H331.904L340.417 205.488H279.528C274.79 205.488 259.961 202.856 259.874 183.568C259.787 164.28 260.49 149.465 260.49 149.465L230.749 144.029L218.64 197.333H188.634C188.634 197.333 203.463 140.959 205.216 133.945C206.969 126.93 211.533 116.061 227.152 117.375C242.771 118.689 262.772 122.283 262.772 122.283L263.179 117.635H287.515L287.792 122.456C287.792 122.456 296.663 132.714 288.127 148.321L288.123 148.325Z" fill="#0D9AFF"/>
<path d="M280.578 78.5378C280.578 78.5378 289.623 79.248 292.711 80.0449C298.432 81.5204 302.51 87.8328 291.59 101.18C282.639 112.116 282.244 113.54 279.22 114.526C276.192 115.513 272.244 114.791 266.981 112.226C261.718 109.662 242.198 99.057 242.198 99.057L247.832 88.7521C247.832 88.7521 266.851 96.7096 269.417 97.8261C271.983 98.9426 275.011 99.3371 277.511 95.6562C280.01 91.9753 280.582 78.5378 280.582 78.5378H280.578Z" fill="#ADB2BA"/>
<path d="M247.564 89.0519C252.472 91.3164 257.466 93.4035 262.488 95.3998C264.786 96.3151 267.096 97.2146 269.433 98.0194C270.582 98.4139 271.968 99.0649 273.211 98.8873C274.834 98.6546 276.089 97.3448 277.151 96.2046C278.612 94.6423 279.963 92.9853 281.38 91.3875C281.55 91.1981 281.269 90.918 281.1 91.1073C279.919 92.4369 278.79 93.8098 277.602 95.1315C276.52 96.3269 275.339 97.8024 273.768 98.3469C272.386 98.8282 270.834 98.0825 269.535 97.6367C264.762 95.9955 260.084 94.0465 255.437 92.0818C252.862 90.9929 250.3 89.8804 247.761 88.7126C247.532 88.6061 247.331 88.9453 247.564 89.0519Z" fill="#333B4C"/>
<path d="M276.65 75.3699C275.651 76.2457 273.393 77.7055 270.925 78.2973C268.457 78.889 266.681 78.0329 266.353 75.8315C266.025 73.63 266.55 70.3752 267.569 67.152C268.588 63.9287 271.616 60.9382 275.829 61.7943C280.041 62.6504 280.93 66.6943 280.697 69.0259C280.468 71.3615 279.346 73.0027 276.65 75.3699Z" fill="#B6D2FF"/>
<path d="M264.861 70.5922C264.687 70.7816 264.746 71.1169 264.92 71.2984C265.094 71.4799 265.35 71.547 265.591 71.5864C266.104 71.6772 266.91 71.6811 267.403 71.4957L268.422 66.6943C267.988 67.2269 267.786 67.4794 267.076 68.2882C266.365 69.1009 265.619 69.7756 264.861 70.5962V70.5922Z" fill="#B6D2FF"/>
<path d="M279.315 71.3931L280.077 75.7013L271.6 78.5379L271.158 74.4191L279.315 71.3931Z" fill="#B6D2FF"/>
<path d="M280.077 75.7014L280.578 78.538L271.715 79.5993L271.6 78.538L280.077 75.7014Z" fill="#ADB2BA"/>
<path d="M275.829 61.7903C272.809 61.1788 270.396 62.5478 268.9 64.5598C269.804 66.0906 270.91 67.503 272.414 68.4814C273.042 68.8878 273.717 69.1994 274.419 69.4046C274.601 71.0576 275.197 72.6436 276.409 73.7404C277.369 74.6084 278.739 74.9831 279.899 74.6794L279.489 72.3517C280.203 71.2983 280.579 70.2568 280.701 69.0258C280.93 66.6903 280.042 62.6464 275.829 61.7903Z" fill="#0A0C0F"/>
<path d="M283.694 70.1425C286.273 70.1425 288.364 68.053 288.364 65.4753C288.364 62.8977 286.273 60.8081 283.694 60.8081C281.114 60.8081 279.023 62.8977 279.023 65.4753C279.023 68.053 281.114 70.1425 283.694 70.1425Z" fill="#0A0C0F"/>
<path d="M279.291 64.0865C280.109 65.5936 280.594 67.2545 280.567 68.9746C280.567 69.2271 280.957 69.2271 280.961 68.9746C280.989 67.1874 280.48 65.4515 279.631 63.8853C279.508 63.6604 279.169 63.8616 279.291 64.0825V64.0865Z" fill="#C2C9D6"/>
<path d="M280.697 66.8324C281.771 64.5599 283.784 62.7727 286.157 61.9403C286.394 61.8574 286.291 61.4748 286.051 61.5616C283.587 62.4256 281.475 64.268 280.353 66.6351C280.247 66.864 280.586 67.0652 280.693 66.8324H280.697Z" fill="#C2C9D6"/>
<path d="M282.541 69.8585C283.694 67.4203 285.245 65.0966 288.104 64.5995C288.352 64.5561 288.246 64.1773 287.997 64.2207C285.044 64.7297 283.397 67.1284 282.197 69.6612C282.091 69.8901 282.43 70.0913 282.537 69.8585H282.541Z" fill="#C2C9D6"/>
<path d="M270.696 63.0292C271.865 65.495 273.456 67.7004 275.422 69.5941C275.604 69.7716 275.884 69.4915 275.702 69.314C273.76 67.44 272.196 65.2661 271.04 62.828C270.929 62.5992 270.59 62.8004 270.7 63.0253L270.696 63.0292Z" fill="#C2C9D6"/>
<path d="M274.881 61.8812C275.083 64.998 275.845 68.0161 277.144 70.8566C277.25 71.0855 277.59 70.8882 277.483 70.6594C276.212 67.8819 275.47 64.9309 275.272 61.8852C275.256 61.6327 274.862 61.6327 274.877 61.8852L274.881 61.8812Z" fill="#C2C9D6"/>
<path d="M278.865 63.9169C278.829 66.6865 278.083 69.3298 276.67 71.7127C276.539 71.9297 276.883 72.1309 277.009 71.91C278.454 69.4718 279.22 66.7496 279.256 63.913C279.256 63.6605 278.865 63.6605 278.861 63.913L278.865 63.9169Z" fill="#C2C9D6"/>
<path d="M275.69 73.1843C276.857 73.1843 277.803 72.2393 277.803 71.0736C277.803 69.9079 276.857 68.9629 275.69 68.9629C274.524 68.9629 273.578 69.9079 273.578 71.0736C273.578 72.2393 274.524 73.1843 275.69 73.1843Z" fill="#B6D2FF"/>
<path d="M267.731 73.3262C268.343 73.1921 268.856 72.8409 269.223 72.332C269.373 72.1268 269.03 71.9296 268.884 72.1347C268.58 72.5569 268.138 72.833 267.628 72.9475C267.38 73.0027 267.486 73.3814 267.735 73.3262H267.731Z" fill="#0A0C0F"/>
<path d="M275.671 70.0912C276.109 70.4029 276.294 70.9513 276.16 71.4681C276.097 71.7127 276.476 71.8192 276.539 71.5746C276.721 70.8763 276.448 70.1701 275.868 69.7559C275.663 69.6059 275.465 69.9492 275.671 70.0951V70.0912Z" fill="#0A0C0F"/>
<path d="M271.731 78.3643C272.378 78.0723 272.915 77.6305 273.345 77.0702C273.499 76.869 273.156 76.6718 273.006 76.873C272.619 77.378 272.114 77.7646 271.533 78.025C271.3 78.1315 271.502 78.4708 271.731 78.3643Z" fill="#0A0C0F"/>
<path d="M271.679 79.9819C274.554 81.5166 278.277 80.9327 280.693 78.8102C280.882 78.6405 280.602 78.3644 280.413 78.5301C278.135 80.5342 274.593 81.0905 271.877 79.6426C271.652 79.5243 271.454 79.8635 271.679 79.9819Z" fill="#333B4C"/>
<path d="M262.693 110.258C265.358 111.852 268.114 113.343 271.087 114.282C273.661 115.091 276.903 115.86 279.492 114.759C282.154 113.631 284.203 111.13 285.987 108.948C287.949 106.545 289.746 104.012 291.594 101.527C291.744 101.322 291.404 101.124 291.254 101.33C289.493 103.701 287.78 106.111 285.924 108.407C284.226 110.506 282.311 112.889 279.871 114.148C277.135 115.56 273.661 114.716 270.878 113.8C268.055 112.869 265.433 111.441 262.894 109.918C262.677 109.788 262.476 110.127 262.697 110.258H262.693Z" fill="#333B4C"/>
<path d="M246.198 100.994C248.077 97.5857 249.952 94.1809 251.832 90.7722C251.954 90.5513 251.615 90.3501 251.492 90.575C249.613 93.9837 247.738 97.3884 245.858 100.797C245.736 101.018 246.075 101.219 246.198 100.994Z" fill="#333B4C"/>
<path d="M267.498 67.8463C267.471 68.5052 268.11 68.2606 268.683 68.6985C269.208 69.1009 269.63 69.1956 269.753 68.8602C269.903 68.4539 269.512 67.7516 268.671 67.4163C267.881 67.1046 267.518 67.365 267.498 67.8463Z" fill="#0A0C0F"/>
<path d="M268.374 68.943C268.884 69.0456 268.674 69.7675 268.524 70.0437C268.426 70.2252 268.26 70.4264 268.027 70.3751C267.691 70.3002 267.759 69.8386 267.822 69.5979C267.889 69.3257 268.039 68.872 268.374 68.943Z" fill="#0A0C0F"/>
<path d="M256.1 49.3431V39.1289C256.1 39.1289 258.339 42.1115 258.599 43.9737C258.864 45.8358 258.031 48.4239 256.1 49.3431Z" fill="#B6D2FF"/>
<path d="M256.092 49.3432C256.092 49.3432 253.624 46.0529 253.328 44.7825C253.02 43.4687 253.79 42.6797 254.821 43.2044C255.851 43.7291 257.233 45.2638 257.233 45.2638L256.092 49.3392V49.3432Z" fill="#B6D2FF"/>
<path d="M243.158 97.3015C243.158 97.3015 228.715 91.4902 227.499 91.0128C226.524 90.6301 226.994 88.7561 228.202 88.7561H239.624C239.624 88.7561 238.227 86.4561 238.246 85.5329C238.27 84.6136 239.45 83.7023 240.943 84.5702C242.455 85.4461 247.828 88.7561 247.828 88.7561L243.154 97.3015H243.158Z" fill="#B6D2FF"/>
<path d="M247.722 41H197.278C195.744 41 194.5 42.588 194.5 44.5469V79.4531C194.5 81.412 195.744 83 197.278 83H247.722C249.256 83 250.5 81.412 250.5 79.4531V44.5469C250.5 42.588 249.256 41 247.722 41Z" fill="#EDEEF3"/>
<path d="M206.878 76.3535H245.842C246.095 76.3535 246.095 75.959 245.842 75.959H206.878C206.625 75.959 206.625 76.3535 206.878 76.3535Z" fill="#0A0C0F"/>
<path d="M199.061 76.3535H206.314C206.567 76.3535 206.567 75.959 206.314 75.959H199.061C198.808 75.959 198.808 76.3535 199.061 76.3535Z" fill="#0D9AFF"/>
<path d="M208.572 76.1561C208.572 77.0911 207.814 77.8486 206.878 77.8486C205.943 77.8486 205.185 77.0911 205.185 76.1561C205.185 75.2211 205.943 74.4636 206.878 74.4636C207.814 74.4636 208.572 75.2211 208.572 76.1561Z" fill="#0D9AFF"/>
<path d="M227.257 61.5254C227.884 58.8704 226.239 56.2101 223.582 55.5834C220.925 54.9568 218.263 56.6011 217.635 59.2561C217.008 61.9112 218.654 64.5715 221.311 65.1981C223.968 65.8248 226.63 64.1804 227.257 61.5254Z" fill="#0D9AFF"/>
<path d="M221.293 58.7776V62.0206C221.293 62.3362 221.644 62.5216 221.909 62.348L224.313 60.7265C224.546 60.5687 224.546 60.2294 224.313 60.0756L221.909 58.4541C221.648 58.2765 221.293 58.4659 221.293 58.7815V58.7776Z" fill="white"/>
<path d="M282.485 117.757V122.295C282.485 122.547 282.88 122.547 282.88 122.295V117.757C282.88 117.505 282.485 117.505 282.485 117.757Z" fill="#0A0C0F"/>
<path d="M280.669 117.757V122.295C280.669 122.547 281.064 122.547 281.064 122.295V117.757C281.064 117.505 280.669 117.505 280.669 117.757Z" fill="#0A0C0F"/>
<path d="M269.839 117.757V122.295C269.839 122.547 270.234 122.547 270.234 122.295V117.757C270.234 117.505 269.839 117.505 269.839 117.757Z" fill="#0A0C0F"/>
<path d="M268.027 117.757V122.295C268.027 122.547 268.422 122.547 268.422 122.295V117.757C268.422 117.505 268.027 117.505 268.027 117.757Z" fill="#0A0C0F"/>
<path d="M262.966 122.571H287.496C287.748 122.571 287.748 122.176 287.496 122.176H262.966C262.713 122.176 262.713 122.571 262.966 122.571Z" fill="#0A0C0F"/>
<path d="M272.07 122.464C272.09 125.593 271.904 128.808 272.315 131.917C272.567 133.819 273.16 136.782 275.41 137.255C275.659 137.306 275.765 136.928 275.517 136.876C272.927 136.332 272.662 132.189 272.552 130.114C272.421 127.569 272.481 125.009 272.465 122.464C272.465 122.212 272.07 122.212 272.07 122.464Z" fill="#0A0C0F"/>
<path d="M260.585 149.26C261.035 144.4 261.489 139.535 261.939 134.675C261.963 134.422 261.568 134.422 261.544 134.675C261.094 139.535 260.64 144.4 260.19 149.26C260.166 149.513 260.561 149.513 260.585 149.26Z" fill="#0A0C0F"/>
<path d="M276.085 122.373C275.552 132.177 275.015 141.981 274.55 151.785C274.321 156.638 274.095 161.487 273.953 166.343C273.807 171.373 273.661 176.542 274.443 181.52C275.055 185.422 276.504 189.502 279.56 192.165C282.631 194.84 286.801 195.187 290.701 195.297C290.954 195.305 290.954 194.911 290.701 194.903C286.86 194.796 282.726 194.469 279.722 191.786C276.875 189.241 275.497 185.43 274.877 181.757C274.04 176.798 274.198 171.622 274.34 166.6C274.625 156.551 275.189 146.51 275.718 136.474C275.967 131.775 276.224 127.076 276.48 122.377C276.492 122.125 276.097 122.125 276.085 122.377V122.373Z" fill="#0A0C0F"/>
<path d="M290.702 195.293H330.866C331.119 195.293 331.119 194.899 330.866 194.899H290.702C290.449 194.899 290.449 195.293 290.702 195.293Z" fill="#0A0C0F"/>
<path d="M325.291 177.753C327.948 186.996 330.901 196.153 334.143 205.212C334.23 205.448 334.609 205.346 334.522 205.105C331.28 196.051 328.327 186.89 325.67 177.646C325.599 177.402 325.22 177.508 325.291 177.753Z" fill="#0A0C0F"/>
<path d="M190.857 189.553H220.061C220.314 189.553 220.314 189.158 220.061 189.158H190.857C190.604 189.158 190.604 189.553 190.857 189.553Z" fill="#0A0C0F"/>
<path d="M204.699 188.614C206.207 179.382 208.331 170.253 211.079 161.313C212.433 156.902 213.937 152.539 215.592 148.227C217.23 143.95 218.963 139.259 222.225 135.917C225.975 132.075 231.317 132.777 236.118 133.684C236.367 133.732 236.474 133.353 236.225 133.306C232.348 132.572 227.93 131.803 224.297 133.811C220.48 135.921 218.34 140.522 216.713 144.356C212.935 153.273 210.029 162.631 207.699 172.02C206.345 177.469 205.224 182.968 204.32 188.507C204.28 188.756 204.659 188.863 204.699 188.614Z" fill="#0A0C0F"/>
<path d="M236.118 133.685C244.496 135.543 252.835 137.567 261.158 139.65C261.402 139.713 261.509 139.33 261.264 139.271C252.941 137.188 244.603 135.16 236.225 133.306C235.976 133.251 235.874 133.629 236.118 133.685Z" fill="#0A0C0F"/>
<circle cx="156.5" cy="83" r="16.5" stroke="#0A0C0F"/>
<path d="M156.5 77V89" stroke="#0A0C0F" stroke-linecap="round"/>
<path d="M162.5 83L150.5 83" stroke="#0A0C0F" stroke-linecap="round"/>
</g>
<defs>
<clipPath id="clip0_6881_7705">
<rect width="350" height="209.674" fill="white" transform="translate(0.5)"/>
</clipPath>
</defs>
</svg>
